<?xml version="1.0" encoding="utf-8"?>
<svg x="0pt" y="0pt" width="326.927pt" height="429pt" viewBox="0 0 326.927 429" xmlns="http://www.w3.org/2000/svg" xmlns:xlink="http://www.w3.org/1999/xlink">
  <g id="Layer 2">
    <path id="Path" style="fill:#ffffff;fill-opacity:1;fill-rule:evenodd;opacity:1;stroke:none;" d="M0,0 C0,0,350.501,0,350.501,0 C350.501,0,350.501,429,350.501,429 C350.501,429,0,429,0,429 C0,429,0,0,0,0 z"/>
  </g>
  <g id="Layer 1">
    <g id="Group">
      <path id="Path 0" style="fill:#000000;fill-opacity:1;fill-rule:nonzero;opacity:1;stroke:none;" d="M44.7,1.7 C42.5,4.2,3.2,58.7,2,61.1 C1.4,62.2,1.2,63.5,1.5,64 C1.9,64.7,46.6,65,127.1,65 C251,65,252,65,252,63 C252,61.9,242.1,47.3,229.9,30.5 C222.567,20.3333,215.233,10.1667,207.9,0 C180.967,0,154.033,0,127.1,0 C51.4,0,46.2,0.1,44.7,1.7 z M224,32.6 C234.6,47.2,243,59.3,242.8,59.6 C242.5,59.8,190.1,59.9,126.2,59.8 C87.5,59.7,48.8,59.6,10.1,59.5 C16.5,50.6,22.9,41.7,29.3,32.8 C35.7,23.9,42.1,15,48.5,6.1 C74.5667,6.06665,100.633,6.03335,126.7,6 C152.733,6,178.767,6,204.8,6 C211.2,14.8667,217.6,23.7333,224,32.6 z"/>
      <path id="Path 1" style="fill:#000000;fill-opacity:1;fill-rule:nonzero;opacity:1;stroke:none;" d="M308.8,29.4 C307.6,30,305.4,32.7,304,35.5 C303.167,37.1667,302.333,38.8333,301.5,40.5 C301.5,98.3334,301.5,156.167,301.5,214 C301.5,378.2,301.6,387.7,303.3,392.1 C305.5,397.7,308,400.3,311.7,400.3 C315.1,400.2,318.5,396.2,319.9,390.4 C321.5,384.3,321.4,44.1,319.9,38.5 C317.7,30.5,313.5,27.1,308.8,29.4 z"/>
      <path id="Path 2" style="fill:#000000;fill-opacity:1;fill-rule:nonzero;opacity:1;stroke:none;" d="M2.2,73.2 C0.8,74.6,0.5,133.6,1.8,135.8 C2.5,136.8,28.2,137,127.1,136.8 C168.567,136.7,210.033,136.6,251.5,136.5 C251.5,125.833,251.5,115.167,251.5,104.5 C251.5,93.8333,251.5,83.1667,251.5,72.5 C210.167,72.4,168.833,72.3,127.5,72.2 C31.8,72.1,3.1,72.3,2.2,73.2 z M246,104.5 C246,113.333,246,122.167,246,131 C206.167,131,166.333,131,126.5,131 C86.6667,131,46.8333,131,7,131 C7,122.167,7,113.333,7,104.5 C7,95.6667,7,86.8333,7,78 C46.8333,78,86.6667,78,126.5,78 C166.333,78,206.167,78,246,78 C246,86.8333,246,95.6667,246,104.5 z"/>
      <path id="Path 3" style="fill:#000000;fill-opacity:1;fill-rule:nonzero;opacity:1;stroke:none;" d="M157.6,102.9 C144.1,116.5,141.8,120,146,120.8 C148.3,121.2,176.4,92.6,175.7,90.6 C174.4,87.2,171,89.5,157.6,102.9 z"/>
      <path id="Path 4" style="fill:#000000;fill-opacity:1;fill-rule:nonzero;opacity:1;stroke:none;" d="M173.6,102.9 C160.1,116.5,157.8,120,162,120.8 C164.3,121.2,192.4,92.6,191.7,90.6 C190.4,87.2,187,89.5,173.6,102.9 z"/>
      <path id="Path 5" style="fill:#000000;fill-opacity:1;fill-rule:nonzero;opacity:1;stroke:none;" d="M188.6,102.9 C181,110.6,175,117.4,175.2,118.1 C175.4,118.8,176.4,119.8,177.3,120.4 C178.8,121.3,181.3,119.2,193.6,106.8 C201.7,98.7,208,91.6,207.8,90.8 C207.5,90.1,206.3,89.4,204.9,89.2 C203,89,199.8,91.6,188.6,102.9 z"/>
      <path id="Path 6" style="fill:#000000;fill-opacity:1;fill-rule:nonzero;opacity:1;stroke:none;" d="M204.5,103 C192.8,114.7,190.7,117.3,191.6,118.7 C192.2,119.6,193.2,120.6,193.9,120.8 C195.9,121.5,223,94,223,91.3 C223,89.6,222.4,89,220.7,89 C219.2,89,214.2,93.2,204.5,103 z"/>
      <path id="Path 7" style="fill:#000000;fill-opacity:1;fill-rule:nonzero;opacity:1;stroke:none;" d="M220.7,102.8 C213.2,110.3,207,117.3,207,118.2 C207,119.6,208.9,121,210.8,121 C211.1,121,217.6,114.8,225.2,107.3 C234.9,97.6,239,92.9,239,91.3 C239,89.6,238.4,89,236.7,89 C235.2,89,230.3,93.2,220.7,102.8 z"/>
      <path id="Path 8" style="fill:#000000;fill-opacity:1;fill-rule:nonzero;opacity:1;stroke:none;" d="M26.4,95.3 C22,99.3,20.9,104.9,23.5,110.4 C27.9,119.6,41.7,119.3,46.5,110 C50.9,101.6,44.6,92,34.9,92 C30.7,92,29.4,92.5,26.4,95.3 z M37.3,98.1 C43.1,100.7,43.2,108.2,37.6,110.9 C29.7,114.7,24.1,102.3,32,98.3 C35,96.8,34.4,96.8,37.3,98.1 z"/>
      <path id="Path 9" style="fill:#000000;fill-opacity:1;fill-rule:nonzero;opacity:1;stroke:none;" d="M2.2,145.2 C0.8,146.6,0.5,205.6,1.8,207.8 C2.5,208.8,28.2,209,127.1,208.8 C168.567,208.7,210.033,208.6,251.5,208.5 C251.5,197.833,251.5,187.167,251.5,176.5 C251.5,165.833,251.5,155.167,251.5,144.5 C210.167,144.4,168.833,144.3,127.5,144.2 C31.8,144.1,3.1,144.3,2.2,145.2 z M246,176.5 C246,185.333,246,194.167,246,203 C206.167,203,166.333,203,126.5,203 C86.6667,203,46.8333,203,7,203 C7,194.167,7,185.333,7,176.5 C7,167.667,7,158.833,7,150 C46.8333,150,86.6667,150,126.5,150 C166.333,150,206.167,150,246,150 C246,158.833,246,167.667,246,176.5 z"/>
      <path id="Path 10" style="fill:#000000;fill-opacity:1;fill-rule:nonzero;opacity:1;stroke:none;" d="M157.6,174.9 C144.1,188.5,141.8,192,146,192.8 C148.3,193.2,176.4,164.6,175.7,162.6 C174.4,159.2,171,161.5,157.6,174.9 z"/>
      <path id="Path 11" style="fill:#000000;fill-opacity:1;fill-rule:nonzero;opacity:1;stroke:none;" d="M173.6,174.9 C160.1,188.5,157.8,192,162,192.8 C164.3,193.2,192.4,164.6,191.7,162.6 C190.4,159.2,187,161.5,173.6,174.9 z"/>
      <path id="Path 12" style="fill:#000000;fill-opacity:1;fill-rule:nonzero;opacity:1;stroke:none;" d="M188.6,174.9 C181,182.6,175,189.4,175.2,190.1 C175.4,190.8,176.4,191.8,177.3,192.4 C178.8,193.3,181.3,191.2,193.6,178.8 C201.7,170.7,208,163.6,207.8,162.8 C207.5,162.1,206.3,161.4,204.9,161.2 C203,161,199.8,163.6,188.6,174.9 z"/>
      <path id="Path 13" style="fill:#000000;fill-opacity:1;fill-rule:nonzero;opacity:1;stroke:none;" d="M204.5,175 C192.8,186.7,190.7,189.3,191.6,190.7 C192.2,191.6,193.2,192.6,193.9,192.8 C195.9,193.5,223,166,223,163.3 C223,161.6,222.4,161,220.7,161 C219.2,161,214.2,165.2,204.5,175 z"/>
      <path id="Path 14" style="fill:#000000;fill-opacity:1;fill-rule:nonzero;opacity:1;stroke:none;" d="M220.7,174.8 C213.2,182.3,207,189.3,207,190.2 C207,191.6,208.9,193,210.8,193 C211.1,193,217.6,186.8,225.2,179.3 C234.9,169.6,239,164.9,239,163.3 C239,161.6,238.4,161,236.7,161 C235.2,161,230.3,165.2,220.7,174.8 z"/>
      <path id="Path 15" style="fill:#000000;fill-opacity:1;fill-rule:nonzero;opacity:1;stroke:none;" d="M26.4,167.3 C22,171.3,20.9,176.9,23.5,182.4 C27.9,191.6,41.7,191.3,46.5,182 C50.9,173.6,44.6,164,34.9,164 C30.7,164,29.4,164.5,26.4,167.3 z M37.3,170.1 C43.1,172.7,43.2,180.2,37.6,182.9 C29.7,186.7,24.1,174.3,32,170.3 C35,168.8,34.4,168.8,37.3,170.1 z"/>
      <path id="Path 16" style="fill:#000000;fill-opacity:1;fill-rule:nonzero;opacity:1;stroke:none;" d="M2.2,216.2 C0.8,217.6,0.5,276.6,1.8,278.8 C2.5,279.8,28.2,280,127.1,279.8 C168.567,279.7,210.033,279.6,251.5,279.5 C251.5,268.833,251.5,258.167,251.5,247.5 C251.5,236.833,251.5,226.167,251.5,215.5 C210.167,215.4,168.833,215.3,127.5,215.2 C31.8,215.1,3.1,215.3,2.2,216.2 z M246,247.5 C246,256.333,246,265.167,246,274 C206.167,274,166.333,274,126.5,274 C86.6667,274,46.8333,274,7,274 C7,265.167,7,256.333,7,247.5 C7,238.667,7,229.833,7,221 C46.8333,221,86.6667,221,126.5,221 C166.333,221,206.167,221,246,221 C246,229.833,246,238.667,246,247.5 z"/>
      <path id="Path 17" style="fill:#000000;fill-opacity:1;fill-rule:nonzero;opacity:1;stroke:none;" d="M157.6,245.9 C144.1,259.5,141.8,263,146,263.8 C148.3,264.2,176.4,235.6,175.7,233.6 C174.4,230.2,171,232.5,157.6,245.9 z"/>
      <path id="Path 18" style="fill:#000000;fill-opacity:1;fill-rule:nonzero;opacity:1;stroke:none;" d="M173.6,245.9 C160.1,259.5,157.8,263,162,263.8 C164.3,264.2,192.4,235.6,191.7,233.6 C190.4,230.2,187,232.5,173.6,245.9 z"/>
      <path id="Path 19" style="fill:#000000;fill-opacity:1;fill-rule:nonzero;opacity:1;stroke:none;" d="M188.6,245.9 C181,253.6,175,260.4,175.2,261.1 C175.4,261.8,176.4,262.8,177.3,263.4 C178.8,264.3,181.3,262.2,193.6,249.8 C201.7,241.7,208,234.6,207.8,233.8 C207.5,233.1,206.3,232.4,204.9,232.2 C203,232,199.8,234.6,188.6,245.9 z"/>
      <path id="Path 20" style="fill:#000000;fill-opacity:1;fill-rule:nonzero;opacity:1;stroke:none;" d="M204.5,246 C192.8,257.7,190.7,260.3,191.6,261.7 C192.2,262.6,193.2,263.6,193.9,263.8 C195.9,264.5,223,237,223,234.3 C223,232.6,222.4,232,220.7,232 C219.2,232,214.2,236.2,204.5,246 z"/>
      <path id="Path 21" style="fill:#000000;fill-opacity:1;fill-rule:nonzero;opacity:1;stroke:none;" d="M220.7,245.8 C213.2,253.3,207,260.3,207,261.2 C207,262.6,208.9,264,210.8,264 C211.1,264,217.6,257.8,225.2,250.3 C234.9,240.6,239,235.9,239,234.3 C239,232.6,238.4,232,236.7,232 C235.2,232,230.3,236.2,220.7,245.8 z"/>
      <path id="Path 22" style="fill:#000000;fill-opacity:1;fill-rule:nonzero;opacity:1;stroke:none;" d="M26.4,238.3 C22,242.3,20.9,247.9,23.5,253.4 C27.9,262.6,41.7,262.3,46.5,253 C50.9,244.6,44.6,235,34.9,235 C30.7,235,29.4,235.5,26.4,238.3 z M37.3,241.1 C43.1,243.7,43.2,251.2,37.6,253.9 C29.7,257.7,24.1,245.3,32,241.3 C35,239.8,34.4,239.8,37.3,241.1 z"/>
      <path id="Path 23" style="fill:#000000;fill-opacity:1;fill-rule:nonzero;opacity:1;stroke:none;" d="M2.2,287.2 C0.8,288.6,0.5,347.6,1.8,349.8 C2.5,350.8,28.2,351,127.1,350.8 C168.567,350.7,210.033,350.6,251.5,350.5 C251.5,339.833,251.5,329.167,251.5,318.5 C251.5,307.833,251.5,297.167,251.5,286.5 C210.167,286.4,168.833,286.3,127.5,286.2 C31.8,286.1,3.1,286.3,2.2,287.2 z M246,318.5 C246,327.333,246,336.167,246,345 C206.167,345,166.333,345,126.5,345 C86.6667,345,46.8333,345,7,345 C7,336.167,7,327.333,7,318.5 C7,309.667,7,300.833,7,292 C46.8333,292,86.6667,292,126.5,292 C166.333,292,206.167,292,246,292 C246,300.833,246,309.667,246,318.5 z"/>
      <path id="Path 24" style="fill:#000000;fill-opacity:1;fill-rule:nonzero;opacity:1;stroke:none;" d="M157.6,316.9 C144.1,330.5,141.8,334,146,334.8 C148.3,335.2,176.4,306.6,175.7,304.6 C174.4,301.2,171,303.5,157.6,316.9 z"/>
      <path id="Path 25" style="fill:#000000;fill-opacity:1;fill-rule:nonzero;opacity:1;stroke:none;" d="M173.6,316.9 C160.1,330.5,157.8,334,162,334.8 C164.3,335.2,192.4,306.6,191.7,304.6 C190.4,301.2,187,303.5,173.6,316.9 z"/>
      <path id="Path 26" style="fill:#000000;fill-opacity:1;fill-rule:nonzero;opacity:1;stroke:none;" d="M188.6,316.9 C181,324.6,175,331.4,175.2,332.1 C175.4,332.8,176.4,333.8,177.3,334.4 C178.8,335.3,181.3,333.2,193.6,320.8 C201.7,312.7,208,305.6,207.8,304.8 C207.5,304.1,206.3,303.4,204.9,303.2 C203,303,199.8,305.6,188.6,316.9 z"/>
      <path id="Path 27" style="fill:#000000;fill-opacity:1;fill-rule:nonzero;opacity:1;stroke:none;" d="M204.5,317 C192.8,328.7,190.7,331.3,191.6,332.7 C192.2,333.6,193.2,334.6,193.9,334.8 C195.9,335.5,223,308,223,305.3 C223,303.6,222.4,303,220.7,303 C219.2,303,214.2,307.2,204.5,317 z"/>
      <path id="Path 28" style="fill:#000000;fill-opacity:1;fill-rule:nonzero;opacity:1;stroke:none;" d="M220.7,316.8 C213.2,324.3,207,331.3,207,332.2 C207,333.6,208.9,335,210.8,335 C211.1,335,217.6,328.8,225.2,321.3 C234.9,311.6,239,306.9,239,305.3 C239,303.6,238.4,303,236.7,303 C235.2,303,230.3,307.2,220.7,316.8 z"/>
      <path id="Path 29" style="fill:#000000;fill-opacity:1;fill-rule:nonzero;opacity:1;stroke:none;" d="M26.4,309.3 C22,313.3,20.9,318.9,23.5,324.4 C27.9,333.6,41.7,333.3,46.5,324 C50.9,315.6,44.6,306,34.9,306 C30.7,306,29.4,306.5,26.4,309.3 z M37.3,312.1 C43.1,314.7,43.2,322.2,37.6,324.9 C29.7,328.7,24.1,316.3,32,312.3 C35,310.8,34.4,310.8,37.3,312.1 z"/>
      <path id="Path 30" style="fill:#000000;fill-opacity:1;fill-rule:nonzero;opacity:1;stroke:none;" d="M2.2,358.2 C0.8,359.6,0.5,418.6,1.8,420.8 C2.5,421.8,28.2,422,127.1,421.8 C168.567,421.7,210.033,421.6,251.5,421.5 C251.5,410.833,251.5,400.167,251.5,389.5 C251.5,378.833,251.5,368.167,251.5,357.5 C210.167,357.4,168.833,357.3,127.5,357.2 C31.8,357.1,3.1,357.3,2.2,358.2 z M246,389.5 C246,398.333,246,407.167,246,416 C206.167,416,166.333,416,126.5,416 C86.6667,416,46.8333,416,7,416 C7,407.167,7,398.333,7,389.5 C7,380.667,7,371.833,7,363 C46.8333,363,86.6667,363,126.5,363 C166.333,363,206.167,363,246,363 C246,371.833,246,380.667,246,389.5 z"/>
      <path id="Path 31" style="fill:#000000;fill-opacity:1;fill-rule:nonzero;opacity:1;stroke:none;" d="M157.6,387.9 C144.1,401.5,141.8,405,146,405.8 C148.3,406.2,176.4,377.6,175.7,375.6 C174.4,372.2,171,374.5,157.6,387.9 z"/>
      <path id="Path 32" style="fill:#000000;fill-opacity:1;fill-rule:nonzero;opacity:1;stroke:none;" d="M173.6,387.9 C160.1,401.5,157.8,405,162,405.8 C164.3,406.2,192.4,377.6,191.7,375.6 C190.4,372.2,187,374.5,173.6,387.9 z"/>
      <path id="Path 33" style="fill:#000000;fill-opacity:1;fill-rule:nonzero;opacity:1;stroke:none;" d="M188.6,387.9 C181,395.6,175,402.4,175.2,403.1 C175.4,403.8,176.4,404.8,177.3,405.4 C178.8,406.3,181.3,404.2,193.6,391.8 C201.7,383.7,208,376.6,207.8,375.8 C207.5,375.1,206.3,374.4,204.9,374.2 C203,374,199.8,376.6,188.6,387.9 z"/>
      <path id="Path 34" style="fill:#000000;fill-opacity:1;fill-rule:nonzero;opacity:1;stroke:none;" d="M204.5,388 C192.8,399.7,190.7,402.3,191.6,403.7 C192.2,404.6,193.2,405.6,193.9,405.8 C195.9,406.5,223,379,223,376.3 C223,374.6,222.4,374,220.7,374 C219.2,374,214.2,378.2,204.5,388 z"/>
      <path id="Path 35" style="fill:#000000;fill-opacity:1;fill-rule:nonzero;opacity:1;stroke:none;" d="M220.7,387.8 C213.2,395.3,207,402.3,207,403.2 C207,404.6,208.9,406,210.8,406 C211.1,406,217.6,399.8,225.2,392.3 C234.9,382.6,239,377.9,239,376.3 C239,374.6,238.4,374,236.7,374 C235.2,374,230.3,378.2,220.7,387.8 z"/>
      <path id="Path 36" style="fill:#000000;fill-opacity:1;fill-rule:nonzero;opacity:1;stroke:none;" d="M26.4,380.3 C22,384.3,20.9,389.9,23.5,395.4 C27.9,404.6,41.7,404.3,46.5,395 C50.9,386.6,44.6,377,34.9,377 C30.7,377,29.4,377.5,26.4,380.3 z M37.3,383.1 C43.1,385.7,43.2,393.2,37.6,395.9 C29.7,399.7,24.1,387.3,32,383.3 C35,381.8,34.4,381.8,37.3,383.1 z"/>
    </g>
  </g>
</svg>
